# xmcd
#
# Track frame offsets:
#	150
#	16477
#	31063
#	47642
#	65891
#	97258
#	115670
#	126277
#	140096
#	160517
#	177447
#
# Disc length: 2595 seconds
#
# Revision: 1
# Processed by: cddbd v1.5.2PL0 Copyright (c) Steve Scherf et al.
# Submitted via: audiograbber 1.83.01
#
DISCID=990a210b
DTITLE=Jim Hunter - Old Dogs For The Hard Road
DYEAR=2002
DGENRE=Blues
TTITLE0=Old Dogs For The Hard Road
TTITLE1=Old Songs
TTITLE2=Slow Burning Flame
TTITLE3=What Went Missing This Morning
TTITLE4=Love You Through And Through
TTITLE5=Fool Of The Town
TTITLE6=Beaver Fever
TTITLE7=You Could Break My Heart
TTITLE8=As Good As It Gets
TTITLE9=From Stanton Station
TTITLE10=Watercolour
EXTD=
EXTT0=
EXTT1=
EXTT2=
EXTT3=
EXTT4=
EXTT5=
EXTT6=
EXTT7=
EXTT8=
EXTT9=
EXTT10=
PLAYORDER=
